<?xml version="1.0" standalone="no"?>
<!DOCTYPE svg PUBLIC "-//W3C//DTD SVG 20010904//EN"
 "http://www.w3.org/TR/2001/REC-SVG-20010904/DTD/svg10.dtd">
<svg version="1.0" xmlns="http://www.w3.org/2000/svg"
 width="1024.000000pt" height="1024.000000pt" viewBox="0 0 1024.000000 1024.000000"
 preserveAspectRatio="xMidYMid meet">
<metadata>
Created by potrace 1.11, written by Peter Selinger 2001-2013
</metadata>
<g transform="translate(0.000000,1024.000000) scale(0.100000,-0.100000)"
fill="#000000" stroke="none">
<path d="M0 5120 l0 -5120 5120 0 5120 0 0 5120 0 5120 -5120 0 -5120 0 0
-5120z m7770 1880 c131 -67 141 -256 18 -337 l-42 -28 -1935 -5 c-2106 -6
-1959 -2 -2131 -60 -369 -124 -692 -473 -834 -900 -68 -206 -80 -287 -80 -550
0 -207 3 -248 22 -340 129 -598 505 -1020 1022 -1148 58 -15 264 -17 2001 -22
l1935 -5 42 -28 c68 -44 102 -132 82 -209 -15 -57 -52 -103 -101 -128 -39 -20
-52 -20 -1996 -17 l-1958 2 -105 27 c-319 80 -571 227 -802 467 -554 574 -702
1497 -362 2264 230 519 679 902 1180 1006 55 11 113 22 129 24 17 2 895 5
1953 6 1902 1 1923 1 1962 -19z m-600 -1188 c100 -50 106 -192 9 -244 -32 -17
-103 -18 -1635 -18 l-1601 0 -34 23 c-93 62 -87 189 12 239 32 17 130 18 1624
18 1494 0 1592 -1 1625 -18z m9 -1140 c97 -52 91 -194 -9 -244 -33 -17 -131
-18 -1625 -18 -1494 0 -1592 1 -1624 18 -99 50 -105 177 -12 239 l34 23 1601
0 c1532 0 1603 -1 1635 -18z"/>
</g>
</svg>
