<?xml version="1.0" encoding="utf-8"?>
<!-- Generator: Adobe Illustrator 19.0.1, SVG Export Plug-In . SVG Version: 6.00 Build 0)  -->
<!DOCTYPE svg PUBLIC "-//W3C//DTD SVG 1.1//EN" "http://www.w3.org/Graphics/SVG/1.1/DTD/svg11.dtd">
<svg version="1.1" id="Layer_1" xmlns="http://www.w3.org/2000/svg" xmlns:xlink="http://www.w3.org/1999/xlink" x="0px" y="0px"
	 viewBox="0 0 494.6 225.1" enable-background="new 0 0 494.6 225.1" xml:space="preserve">
<path fill-rule="evenodd" clip-rule="evenodd" fill="#FFFFFF" d="M36.6,84c2.8-2.3,5.9-4.2,9.2-5.8c6.4-3.1,13.3-4.6,20.5-4.8
	c7-0.3,13.8,0.8,20.4,3.4c6.4,2.6,12.1,6.5,17,11.4c-4.9,6.1-8.3,12.5-10.3,19.9c-1.2-1.7-2.6-3.3-4.1-4.8c-2.9-2.9-6.2-5.4-10-7
	c-3.8-1.6-7.9-2.3-12-2.3c-3.9,0-7.8,0.7-11.5,2.2c-3.7,1.6-6.9,3.9-9.7,6.8c-2.9,3-5.2,6.4-6.8,10.2c-1.6,3.8-2.4,7.8-2.4,12
	c-0.1,4.4,0.5,8.6,2,12.7c1.6,4.2,4.1,7.8,7.1,11c3,3.1,6.5,5.6,10.5,7.3c2,0.8,4,1.4,6,1.7c2,0.3,4.1,0.4,6.1,0.3l2-0.2
	c10.7-0.9,20.8-7.5,25.8-19.3c5.4-12.8-2.4-29.3,16.8-49.6c11.2-11.8,26.5-17.2,41.5-15.9c2.8,0.2,5.5,0.8,8.1,1.4
	c8.7,2.1,16.4,6.5,23.3,13.2c-4.5,5.7-8.4,12.7-10.4,19.7c-3.6-5.1-7.8-8.9-12.9-11.1c-2.5-1.1-5.2-1.9-8.1-2.2v-0.1
	c-2.1-0.3-4.4-0.3-6.7-0.1c-16.1,1.4-27.3,15-28.2,29.8c-0.8,13.4-1.3,21.7-10.5,33.9c-9.9,13.1-24.1,20.3-38.6,21.1
	c-2.7,0.1-5.4,0.1-8.1-0.1c-4.7-0.4-9.3-1.5-13.7-3.3c-6.6-2.7-12.4-6.8-17.5-11.7c-5.1-5-9.2-10.8-12-17.4
	c-2.6-6.5-3.8-13.4-3.6-20.3c0-33.3,0-66.6,0-99.9c0-5.7,4.7-10.4,10.4-10.4c5.7,0,10.4,4.7,10.4,10.4C36.6,45.4,36.6,64.7,36.6,84
	L36.6,84z M405.2,103.1c-2.9,2.9-5.3,6.3-6.9,10.1c-1.6,3.9-2.3,8-2.4,12.1c-0.1,4.2,0.5,8.3,2,12.2c1.5,3.9,3.7,7.4,6.5,10.5
	c2.8,3.1,6,5.6,9.7,7.4c3.6,1.7,7.5,2.6,11.5,2.8c4.2,0.2,8.4-0.4,12.3-2c4-1.6,7.4-4.2,10.4-7.3c3.1-3.2,5.6-6.9,7.2-11
	c1.6-4.1,2.2-8.4,2.2-12.8c-0.1-4.1-0.8-8.1-2.4-11.9c-1.6-3.8-3.9-7.2-6.8-10.2c-2.8-2.9-6-5.3-9.7-6.8c-3.6-1.6-7.5-2.2-11.4-2.2
	c-4.1,0-8.2,0.7-12,2.2C411.5,97.8,408.1,100.2,405.2,103.1L405.2,103.1z M411.7,125.6c0.1-8.9,6.9-15.8,15.7-15.8
	c6.1,0,11,4.1,13.4,9.6c0.8,1.9,1.1,4,1.2,6.1c0.1,6.6-3.7,13.6-9.9,16.2c-1.8,0.7-3.7,0.9-5.6,0.8c-6.2-0.3-11.6-4.6-13.7-10.4
	C411.9,130,411.7,127.8,411.7,125.6L411.7,125.6z M0,125.9c-0.2,9,1.4,18.1,4.8,26.5c3.5,8.6,8.9,16.2,15.5,22.7
	c6.6,6.4,14.1,11.7,22.6,15.1c5.9,2.4,12,3.8,18.3,4.4c3.5,0.3,6.9,0.3,10.4,0.1c14-0.8,27-6,37.7-14.4c24.7,19.8,58.6,19,82.6,0.1
	c23.7,19.2,58.8,18.7,82.5,0.1c5.1,4.1,10.7,7.5,16.8,9.9c8.6,3.5,17.7,4.9,27,4.6c4.5-0.2,9-0.7,13.3-1.8v5.8
	c0,14.4,11.7,26.2,26.2,26.2c14.4,0,26.2-11.7,26.2-26.2v-6.3h26.1c4.8,1.2,9.7,1.9,14.7,2.1c9.9,0.3,19.6-1.4,28.6-5.3
	c2.9,2.1,6.3,3.6,9.9,4.4l31.6,0.6v-25.8l0-42.2c0.3-8.8-1.2-17.4-4.4-25.6c-3.3-8.3-8.2-15.7-14.3-22.1
	c-6.1-6.4-13.3-11.7-21.4-15.3c-8.1-3.6-16.7-5.5-25.5-5.8c-6-0.2-11.9,0.3-17.6,1.6c0-11-0.2-22-0.2-33c0-14.4-11.7-26.2-26.2-26.2
	c-14.4,0-26.2,11.7-26.2,26.2c0,15.7,0,31.4,0,47c-5.4-4.5-11.4-8.2-17.9-10.9c-6.4-2.6-12.9-4.2-19.7-4.6
	c-17-1.4-33.7,3.7-46.9,14.1c-24.4-19.2-58.4-19.1-82.6-0.1c-7.4-5.9-15.7-10.1-25-12.4c-3.5-0.8-6.9-1.6-10.5-1.8
	c-17.1-1.5-33.8,3.7-47.1,14.2c-5-4-10.5-7.3-16.5-9.7c-8.6-3.4-17.6-4.8-26.8-4.5c-4.5,0.2-9,0.7-13.3,1.7c0-11,0-22.1,0-33.2
	C52.4,11.7,40.6,0,26.2,0C11.8,0,0,11.7,0,26.2C0,59.4,0,92.6,0,125.9L0,125.9z M395.5,74c-3.9,2.5-7.5,5.4-10.7,8.8
	c-4,4-7.4,8.4-10.2,13.2c0-23.3,0-46.5,0-69.8c0-5.7,4.7-10.4,10.4-10.4c5.7,0,10.4,4.7,10.4,10.4C395.3,42.1,395.5,58.1,395.5,74
	L395.5,74z M73.1,110.8c-7.7-3.3-16,1-19.2,8.6c-2.7,6.3-1.1,13.7,3.5,18.5c2.9,3,6.2,4.7,10.4,4.5c6.6-0.5,11.5-3.5,14.2-9.8
	C85.4,124.6,81.1,114.2,73.1,110.8L73.1,110.8z M138.4,116.6c-4.9,7.6-4.2,15.2,1.9,21.3c8,8,19.8,5.1,24.1-5.1
	c3.4-8,0.2-18.2-8-21.8C150.1,108.1,142.2,110.9,138.4,116.6L138.4,116.6z M179,138.9c-8.9,20.9-34.2,25.8-49.9,10.1
	c-1.4-1.4-2.7-2.9-3.8-4.5c-1.7,6-4.5,11.6-9.5,18.2l-1,1.3c22.7,22.4,58,19,77-6.2c9.2-12.2,9.7-20.4,10.5-33.9
	c0.9-14.8,12.1-28.4,28.2-29.8c12.1-1.1,22,4.8,27.9,13.4c2-7.3,5.5-13.6,10.3-19.6c-20.8-20.3-53.3-19.5-73,1.3
	C176.6,109.6,184.4,126.2,179,138.9L179,138.9z M261.6,138.9c5.4-12.8-2.4-29.3,16.8-49.6C289.7,77.5,305,72.2,320,73.5
	c5.2,0.4,10.1,1.6,14.9,3.5c6.6,2.7,12.4,6.8,17.5,11.7c5.1,5,9.2,10.8,12,17.4c2.6,6.4,3.8,13.3,3.6,20.2V199
	c0,5.7-4.7,10.4-10.4,10.4c-5.7,0-10.4-4.7-10.4-10.4v-30.6c-2.9,2.3-6,4.2-9.3,5.8c-6.4,3.1-13.3,4.7-20.4,4.9
	c-7.1,0.3-14-0.8-20.5-3.4c-6.5-2.6-12.2-6.6-17.1-11.5l1.1-1.4c5-6.6,7.8-12.3,9.5-18.2c1.2,1.7,2.5,3.2,3.9,4.7
	c2.9,2.9,6.3,5.3,10.1,6.9c3.8,1.6,7.9,2.3,12.1,2.3c4,0,7.8-0.7,11.5-2.2c3.7-1.6,6.9-3.9,9.7-6.8c2.9-3,5.2-6.4,6.8-10.2
	c1.6-3.8,2.4-7.8,2.4-11.9c0.1-4.3-0.6-8.6-2.2-12.7c-1.6-4.1-4.2-7.8-7.2-11c-6.6-7.1-15-10.1-24.3-9.3
	c-16.1,1.4-27.3,15-28.2,29.8c-0.8,13.4-1.3,21.7-10.5,33.9c-9.9,13.1-24.1,20.3-38.6,21.1c0,0-6.3,0-8.1-0.2
	c-11.6-1.1-21.8-6.1-30.4-14.7c4.7-5.8,8.2-12.5,10.5-19.6c6.5,9.3,16.8,14.6,28,13.7C246.6,157.3,256.7,150.7,261.6,138.9
	L261.6,138.9z M305.6,138.1c-8.9-8.9-5.7-26.8,9-28.1c4.6-0.4,8.2,1,11.4,4.4c6.7,7,6.8,17.2,0.3,24.1c-1.3,1.3-2.7,2.5-4.4,3.2
	c-1.7,0.7-3.4,1-5.3,1c-2.1,0-4.1-0.3-6.1-1.1C308.7,140.7,307,139.5,305.6,138.1L305.6,138.1z M378.5,146c-2.5-6.3-3.7-13-3.7-19.7
	c0-7.1,1.3-14,4-20.5c2.7-6.5,6.7-12.3,11.7-17.3c5-5,10.7-9.1,17.3-11.7c6.6-2.6,13.5-3.6,20.5-3.4c6.8,0.3,13.4,1.7,19.6,4.4
	c6.3,2.8,11.7,6.9,16.5,11.8c4.7,4.9,8.5,10.5,11,16.9c2.5,6.3,3.6,12.9,3.3,19.6v42.5c-0.2,5.5-4.8,10-10.4,10
	c-5.7,0-10.4-4.7-10.4-10.4v-0.1c-9.3,7.4-20.3,11.2-32.9,10.8c-6.7-0.3-13.2-1.7-19.4-4.4c-6.2-2.8-11.6-6.8-16.2-11.7
	C384.8,157.9,381.1,152.3,378.5,146L378.5,146z M230.6,142.3c-16.4-3-17-30.7,1.4-32.3c5.6-0.5,10.3,1.9,13.4,6.5
	c6.5,9.6,1.8,24.9-10.8,26C233.3,142.6,231.9,142.5,230.6,142.3L230.6,142.3z M374.6,176.8v-20.5c2.5,4.3,5.5,8.4,9,12
	c3,3.1,6.2,6,9.8,8.4H374.6z"/>
</svg>
